<?xml version="1.0" encoding="utf-8"?>
<!-- Generator: Adobe Illustrator 16.0.0, SVG Export Plug-In . SVG Version: 6.00 Build 0)  -->
<!DOCTYPE svg PUBLIC "-//W3C//DTD SVG 1.1//EN" "http://www.w3.org/Graphics/SVG/1.1/DTD/svg11.dtd">
<svg version="1.1" id="Layer_1" xmlns="http://www.w3.org/2000/svg" xmlns:xlink="http://www.w3.org/1999/xlink" x="0px" y="0px"
	 width="157px" height="53px" viewBox="0 0 157 53" enable-background="new 0 0 157 53" xml:space="preserve">
<g>
	<g>
		<g>
			<path fill="#FFFFFF" d="M0.409,38.432V18.746h16.874c1.553,0,2.675,0.305,3.373,0.913c0.695,0.609,1.042,1.577,1.042,2.905v2.403
				c0,0.944-0.291,1.698-0.874,2.265c-0.584,0.563-1.422,0.915-2.514,1.051c1.13,0.148,2.002,0.553,2.616,1.211
				c0.614,0.656,0.922,1.516,0.922,2.568v2.514c0,1.307-0.479,2.275-1.434,2.905c-0.957,0.633-2.41,0.952-4.358,0.952H0.409
				L0.409,38.432z M15.367,21.948H4.919v4.693h10.448c0.793,0,1.344-0.105,1.648-0.315c0.303-0.21,0.457-0.577,0.457-1.099v-1.862
				c0-0.51-0.153-0.874-0.457-1.088C16.711,22.058,16.161,21.948,15.367,21.948z M15.367,29.884H4.919v5.009h10.448
				c0.87,0,1.455-0.127,1.76-0.389c0.306-0.264,0.456-0.721,0.456-1.379v-1.489c0-0.66-0.149-1.117-0.456-1.37
				C16.822,30.011,16.235,29.884,15.367,29.884z"/>
			<path fill="#FFFFFF" d="M16.055,38.456H0.383V18.72h16.9c1.551,0,2.692,0.31,3.389,0.918c0.7,0.611,1.053,1.595,1.053,2.925
				v2.403c0,0.947-0.298,1.714-0.883,2.283c-0.549,0.531-1.339,0.881-2.343,1.032c1.043,0.171,1.866,0.568,2.447,1.192
				c0.618,0.658,0.929,1.529,0.929,2.587v2.514c0,1.311-0.486,2.295-1.445,2.932C19.473,38.137,18.001,38.456,16.055,38.456z
				 M0.438,38.406h15.618c1.934,0,3.396-0.318,4.344-0.945c0.943-0.627,1.422-1.595,1.422-2.887v-2.514
				c0-1.042-0.308-1.899-0.914-2.55c-0.608-0.651-1.483-1.056-2.603-1.201l-0.204-0.029l0.204-0.025
				c1.083-0.134,1.923-0.488,2.501-1.046c0.575-0.557,0.866-1.313,0.866-2.243v-2.403c0-1.314-0.348-2.285-1.033-2.886
				c-0.686-0.602-1.816-0.906-3.354-0.906H0.438V38.406z M15.367,34.918H4.893v-5.063h10.475c0.872,0,1.47,0.131,1.778,0.39
				c0.31,0.256,0.464,0.727,0.464,1.391v1.489c0,0.664-0.155,1.132-0.464,1.398C16.835,34.784,16.237,34.918,15.367,34.918z
				 M4.945,34.865h10.422c0.857,0,1.445-0.129,1.743-0.381c0.297-0.254,0.446-0.712,0.446-1.359v-1.489
				c0-0.648-0.151-1.101-0.446-1.351c-0.298-0.248-0.885-0.374-1.743-0.374H4.945V34.865z M15.367,26.67H4.893v-4.748h10.475
				c0.796,0,1.357,0.111,1.664,0.331c0.31,0.221,0.467,0.595,0.467,1.111v1.862c0,0.529-0.156,0.905-0.467,1.122
				C16.723,26.562,16.162,26.67,15.367,26.67z M4.945,26.616h10.422c0.786,0,1.334-0.104,1.633-0.312
				c0.295-0.203,0.446-0.566,0.446-1.076v-1.862c0-0.498-0.151-0.856-0.446-1.069c-0.298-0.211-0.849-0.321-1.633-0.321H4.945
				V26.616z"/>
		</g>
		<g>
			<path fill="#FFFFFF" d="M30.694,38.432V18.746h4.584v15.98h14.768v3.706H30.694L30.694,38.432z"/>
			<path fill="#FFFFFF" d="M50.072,38.456H30.668V18.72h4.635v15.982H50.07v3.754H50.072z M30.722,38.406h19.299v-3.654h-14.77
				v-15.98h-4.528v19.635H30.722z"/>
		</g>
		<g>
			<path fill="#FFFFFF" d="M56.751,38.432V18.746h4.583v19.686H56.751z"/>
			<path fill="#FFFFFF" d="M61.359,38.456h-4.635V18.72h4.635V38.456z M56.776,38.406h4.528V18.771h-4.528V38.406z"/>
		</g>
		<g>
			<path fill="#FFFFFF" d="M71.351,38.432V18.746h3.131l13.855,11.603c0.473,0.385,0.888,0.747,1.251,1.091
				c0.359,0.341,0.69,0.694,0.986,1.053c-0.076-1.109-0.126-1.889-0.15-2.347c-0.026-0.459-0.036-0.814-0.036-1.063V18.748h4.116
				v19.687h-3.131L76.92,26.271c-0.347-0.31-0.651-0.588-0.912-0.837c-0.259-0.248-0.502-0.503-0.727-0.765
				c0.063,0.61,0.11,1.183,0.14,1.724c0.032,0.54,0.046,1.009,0.046,1.404v10.635H71.351z"/>
			<path fill="#FFFFFF" d="M94.529,38.456h-3.163l-0.009-0.006L76.907,26.288c-0.347-0.307-0.654-0.588-0.916-0.838
				c-0.239-0.228-0.465-0.463-0.673-0.702c0.059,0.576,0.104,1.127,0.132,1.641c0.028,0.541,0.044,1.015,0.044,1.404v10.663h-4.17
				V18.72h3.166l0.008,0.006l13.856,11.604c0.468,0.383,0.89,0.75,1.249,1.09c0.341,0.322,0.653,0.653,0.939,0.988
				c-0.075-1.073-0.122-1.817-0.146-2.264c-0.024-0.453-0.036-0.813-0.036-1.062V18.718h4.169V38.456z M91.382,38.406h3.093V18.771
				h-4.063v10.311c0,0.248,0.012,0.608,0.036,1.059c0.023,0.456,0.075,1.223,0.15,2.347l0.006,0.082l-0.053-0.062
				c-0.295-0.358-0.626-0.711-0.985-1.052c-0.36-0.337-0.777-0.707-1.248-1.088L74.47,18.771h-3.092v19.635h4.064V27.797
				c0-0.392-0.018-0.863-0.048-1.404c-0.03-0.538-0.078-1.118-0.138-1.723l-0.008-0.083L75.3,24.65
				c0.222,0.258,0.467,0.516,0.725,0.76c0.261,0.249,0.568,0.531,0.912,0.838L91.382,38.406z"/>
		</g>
		<g>
			<path fill="#FFFFFF" d="M104.541,38.432V18.746h4.62v8.214l10.914-8.214h6.631l-13.037,9.275l14.637,10.411h-7.356l-11.788-8.657
				v8.657H104.541z"/>
			<path fill="#FFFFFF" d="M128.391,38.456h-7.449l-0.007-0.003l-11.747-8.63v8.633h-4.672V18.72h4.672v8.186l10.88-8.186h6.723
				l-13.075,9.301L128.391,38.456z M120.961,38.406h7.265l-14.604-10.386l13.001-9.249h-6.537l-10.953,8.241v-8.241h-4.565v19.635
				h4.565v-8.688l0.042,0.033L120.961,38.406z"/>
		</g>
	</g>
	<g>
		<g>
			<path fill="#A09F9F" d="M138.223,17.861v21.066h-2.717V17.861H138.223z"/>
		</g>
		<g>
			<path fill="#A09F9F" d="M146.975,20.175h-6.405v-2.312h15.597v2.312h-6.44v18.753h-2.751V20.175L146.975,20.175z"/>
		</g>
	</g>
</g>
</svg>
